#!OML:ASF E:\Steps\Project 1\Capture day 1\Session 2\Subject.ASF
:FULLY-SPECIFIED
:DEGREES
537
root 8.76758 16.2039 5.2964 -158.605 -1.29099 178.758
lowerback -22.4304 -3.06144 -4.82901
upperback 1.87861 -2.9238 0.644823
thorax 15.1424 -1.78597 2.47086
lowerneck -2.95681 -2.66314 -1.53128
upperneck 21.3918 -2.65909 3.1656
head 7.07451 -0.571838 1.17047
rclavicle -7.95139e-016 -4.17448e-015
rhumerus -42.6095 -21.9665 -72.6322
rradius 33.3977
rwrist -0.946441
rhand -6.66012 -52.0366
rfingers 7.12502
rthumb 19.1977 -81.1091
lclavicle -7.95139e-016 -4.17448e-015
lhumerus -30.3935 2.61382 79.8022
lradius 31.0935
lwrist -0.0262704
lhand -20.7298 -13.5007
lfingers 7.12502
lthumb 5.63527 16.4044
rfemur -34.2896 5.4039 19.6799
rtibia 15.6579
rfoot -12.2624 -7.38096
rtoes -31.9756
lfemur -33.9234 -5.41699 -21.1202
ltibia 56.6249
lfoot 1.36665 -2.11622
ltoes -28.9561
538
root 8.78668 16.2068 5.22014 -158.838 -1.00095 178.908
lowerback -22.1764 -2.80668 -4.68975
upperback 2.02136 -2.62081 0.626775
thorax 15.1283 -1.63609 2.48461
lowerneck -3.39627 -2.71418 -1.44518
upperneck 21.4904 -2.75703 3.14633
head 7.18559 -0.616493 1.13924
rclavicle 2.2413e-014 -6.75868e-015
rhumerus -42.3086 -21.7078 -73.005
rradius 33.9207
rwrist -1.33699
rhand -6.54207 -51.5515
rfingers 7.12502
rthumb 19.3112 -80.6126
lclavicle 2.2413e-014 -6.75868e-015
lhumerus -30.3927 2.32592 79.9342
lradius 31.1265
lwrist -0.57519
lhand -20.0326 -12.9864
lfingers 7.12502
lthumb 6.30838 16.8997
rfemur -33.6506 5.26802 20.0944
rtibia 15.4373
rfoot -12.5076 -6.8737
rtoes -31.9063
lfemur -35.1123 -4.62395 -21.0958
ltibia 59.0997
lfoot 1.92562 -2.02917
ltoes -31.1825
539
root 8.80505 16.209 5.14708 -159.133 -0.802356 178.976
lowerback -21.8556 -2.65991 -4.64383
upperback 1.96493 -2.45722 0.642801
thorax 14.8554 -1.55505 2.54438
lowerneck -2.87244 -2.73723 -1.58444
upperneck 21.2827 -2.7651 3.21
head 7.02827 -0.62556 1.18635
rclavicle 3.18055e-015 2.14687e-014
rhumerus -42.3547 -20.7511 -73.4695
rradius 34.6314
rwrist -2.01756
rhand -6.4057 -51.711
rfingers 7.12502
rthumb 19.4423 -80.759
lclavicle 3.18055e-015 2.14687e-014
lhumerus -31.0309 2.06334 80.0873
lradius 31.2409
lwrist -0.931641
lhand -20.0385 -12.7745
lfingers 7.12502
lthumb 6.30266 17.1117
rfemur -32.9101 5.23937 20.3724
rtibia 15.2131
rfoot -12.73 -6.64675
rtoes -33.2216
lfemur -36.2104 -3.92179 -21.1689
ltibia 61.4565
lfoot 2.11907 -1.80994
ltoes -31.6353
540
root 8.81918 16.2113 5.07318 -159.463 -0.690187 179.033
lowerback -21.5668 -2.53336 -4.52432
upperback 2.01098 -2.32561 0.614828
thorax 14.7214 -1.4815 2.49673
lowerneck -2.53326 -2.83293 -1.66139
upperneck 20.9906 -2.92791 3.38125
head 6.88147 -0.705559 1.24414
rclavicle 1.03865e-014 -1.78906e-015
rhumerus -42.3157 -19.8524 -74.044
rradius 35.5019
rwrist -2.64745
rhand -6.33478 -52.1197
rfingers 7.12502
rthumb 19.5105 -81.1608
lclavicle 1.03865e-014 -1.78906e-015
lhumerus -31.5054 1.73777 80.2183
lradius 31.348
lwrist -0.897501
lhand -20.2596 -13.1562
lfingers 7.12502
lthumb 6.08917 16.7363
rfemur -32.143 5.17302 20.6268
rtibia 15.0649
rfoot -13.054 -6.54245
rtoes -34.5424
lfemur -37.3162 -3.3301 -21.2931
ltibia 63.9251
lfoot 1.61105 -1.58242
ltoes -31.0892
541
root 8.8329 16.2141 5.00037 -159.787 -0.473588 179.091
lowerback -21.3073 -2.39427 -4.44805
upperback 2.1157 -2.16219 0.59938
thorax 14.675 -1.39907 2.49672
lowerneck -2.04439 -2.5863 -1.51582
upperneck 20.3293 -2.61368 3.28951
head 6.57021 -0.578553 1.20864
rclavicle 6.80837e-015 2.5842e-015
rhumerus -42.1065 -19.2377 -74.4526
rradius 36.143
rwrist -3.01656
rhand -6.13564 -52.34
rfingers 7.12502
rthumb 19.702 -81.3615
lclavicle 6.80837e-015 2.5842e-015
lhumerus -31.8548 1.55304 80.3838
lradius 31.4753
lwrist -0.966692
lhand -20.3246 -13.4099
lfingers 7.12502
lthumb 6.02644 16.4844
rfemur -31.451 5.20296 20.8374
rtibia 14.954
rfoot -13.1909 -6.36758
rtoes -35.2296
lfemur -38.4726 -2.66805 -21.4625
ltibia 66.4218
lfoot 0.249001 -1.08648
ltoes -29.2428
542
root 8.84933 16.2152 4.93974 -159.876 -0.361084 179.169
lowerback -21.08 -2.25935 -4.39524
upperback 2.1695 -2.00243 0.602946
thorax 14.5891 -1.32073 2.52945
lowerneck -2.12952 -2.49204 -1.45323
upperneck 20.204 -2.5225 3.39441
head 6.54262 -0.529018 1.23553
rclavicle 4.47266e-015 -6.16232e-015
rhumerus -41.6856 -18.8549 -74.8061
rradius 36.4985
rwrist -3.25837
rhand -5.98621 -52.001
rfingers 7.12502
rthumb 19.8456 -81.0077
lclavicle 4.47266e-015 -6.16232e-015
lhumerus -31.9354 1.62972 80.4905
lradius 31.3509
lwrist -1.4852
lhand -20.437 -13.3752
lfingers 7.12502
lthumb 5.9179 16.5222
rfemur -31.0784 5.32397 21.0277
rtibia 14.8955
rfoot -13.227 -6.40965
rtoes -35.7539
lfemur -40.0234 -2.11794 -21.5578
ltibia 68.9383
lfoot -1.58141 -0.0418146
ltoes -26.5576
